<mxfile host="app.diagrams.net" modified="2023-10-10T11:30:33.782Z" agent="Mozilla/5.0 (Windows NT 10.0; Win64; x64) AppleWebKit/537.36 (KHTML, like Gecko) Chrome/117.0.0.0 Safari/537.36 Edg/117.0.2045.43" etag="dzQNpTpo_9L2gOT3cWBT" version="22.0.4" type="github">
  <diagram name="第 1 页" id="qO63Ez1emeR1Fj4lNttb">
    <mxGraphModel dx="1186" dy="729" grid="1" gridSize="10" guides="1" tooltips="1" connect="1" arrows="1" fold="1" page="1" pageScale="1" pageWidth="827" pageHeight="1169" math="0" shadow="0">
      <root>
        <mxCell id="0" />
        <mxCell id="1" parent="0" />
        <mxCell id="egavwRmLQPbvetfOZlf4-8" value="边缘计算设备" style="rounded=0;whiteSpace=wrap;html=1;verticalAlign=top;align=left;spacing=20;" vertex="1" parent="1">
          <mxGeometry x="110" y="400" width="390" height="180" as="geometry" />
        </mxCell>
        <mxCell id="egavwRmLQPbvetfOZlf4-2" value="云环境" style="rounded=0;whiteSpace=wrap;html=1;horizontal=1;verticalAlign=top;align=left;spacing=20;fillColor=#d5e8d4;strokeColor=#82b366;" vertex="1" parent="1">
          <mxGeometry x="110" y="100" width="560" height="260" as="geometry" />
        </mxCell>
        <mxCell id="egavwRmLQPbvetfOZlf4-6" value="计算管理模块" style="rounded=0;whiteSpace=wrap;html=1;fillColor=#fff2cc;strokeColor=#d6b656;horizontal=1;verticalAlign=top;align=left;" vertex="1" parent="1">
          <mxGeometry x="150" y="240" width="500" height="100" as="geometry" />
        </mxCell>
        <mxCell id="egavwRmLQPbvetfOZlf4-3" value="影子计算节点" style="rounded=1;whiteSpace=wrap;html=1;fillColor=#dae8fc;strokeColor=#6c8ebf;" vertex="1" parent="1">
          <mxGeometry x="180" y="270" width="120" height="60" as="geometry" />
        </mxCell>
        <mxCell id="egavwRmLQPbvetfOZlf4-4" value="影子计算节点" style="rounded=1;whiteSpace=wrap;html=1;fillColor=#dae8fc;strokeColor=#6c8ebf;" vertex="1" parent="1">
          <mxGeometry x="340" y="270" width="120" height="60" as="geometry" />
        </mxCell>
        <mxCell id="egavwRmLQPbvetfOZlf4-5" value="影子计算节点" style="rounded=1;whiteSpace=wrap;html=1;fillColor=#dae8fc;strokeColor=#6c8ebf;" vertex="1" parent="1">
          <mxGeometry x="490" y="270" width="120" height="60" as="geometry" />
        </mxCell>
        <mxCell id="egavwRmLQPbvetfOZlf4-7" value="实际计算节点" style="rounded=1;whiteSpace=wrap;html=1;fillColor=#dae8fc;strokeColor=#6c8ebf;" vertex="1" parent="1">
          <mxGeometry x="180" y="490" width="120" height="60" as="geometry" />
        </mxCell>
        <mxCell id="egavwRmLQPbvetfOZlf4-9" value="实际计算节点" style="rounded=1;whiteSpace=wrap;html=1;fillColor=#dae8fc;strokeColor=#6c8ebf;" vertex="1" parent="1">
          <mxGeometry x="340" y="490" width="120" height="60" as="geometry" />
        </mxCell>
        <mxCell id="egavwRmLQPbvetfOZlf4-10" value="" style="shape=flexArrow;endArrow=classic;startArrow=classic;html=1;rounded=0;entryX=0.5;entryY=1;entryDx=0;entryDy=0;" edge="1" parent="1" source="egavwRmLQPbvetfOZlf4-7" target="egavwRmLQPbvetfOZlf4-3">
          <mxGeometry width="100" height="100" relative="1" as="geometry">
            <mxPoint x="200" y="480" as="sourcePoint" />
            <mxPoint x="300" y="380" as="targetPoint" />
          </mxGeometry>
        </mxCell>
        <mxCell id="egavwRmLQPbvetfOZlf4-11" value="同步" style="edgeLabel;html=1;align=center;verticalAlign=middle;resizable=0;points=[];" vertex="1" connectable="0" parent="egavwRmLQPbvetfOZlf4-10">
          <mxGeometry x="-0.0625" relative="1" as="geometry">
            <mxPoint as="offset" />
          </mxGeometry>
        </mxCell>
      </root>
    </mxGraphModel>
  </diagram>
</mxfile>
